<svg width="349" height="454" viewBox="0 0 349 454" fill="none" xmlns="http://www.w3.org/2000/svg">
  <style>
    path {
      fill: black;
    }
    @media (prefers-color-scheme: dark) {
      path {
        fill: white;
      }
    }
  </style>
  <path fill-rule="evenodd" clip-rule="evenodd" d="M140.5 336L0 416V0L208 118L349 37V454L140.5 336ZM27 91L141 155.5L178 134L27 47V91ZM27 163V123.5L112 171.5L77 192L27 163ZM27 194V220.5L49 207.5L27 194ZM27 296V252L77.5 223L115 245L27 296ZM177.5 281L27.5 368L27 328L143.5 261L177.5 281ZM169.5 319.5L207 297.5L321 363V406.5L169.5 319.5ZM235 282L271 261L321 290V331.869L235 282ZM171.5 245L207 225L242 245.5L207 266L171.5 245ZM105.5 208L143.5 229.5L178 209L141 187.5L105.5 208ZM271 229.5L235 209L321 160V202L271 229.5ZM321 258L299 245.5L321 232V258ZM207 192L169.5 171.5L321 84.5V127L207 192Z"/>
</svg>
